@startuml
!pragma layout smetana

entity Vendedor {
    codigo: String
    stockDisponibles: int
}

entity InstrumentoDeCuerda {
    codigo: String
    stockDisponibles: int
    precio: int
    tipo: String
    nombre: String
    material: String
    tipoIntrumentoCuerda: String
    tipoCuerda: String
}

entity InstrumentoDeViento {
    codigo: String
    stockDisponibles: int
    precio: int
    tipo: String
    nombre: String
    material: String
}

entity InstrumentoDePersecusion {
    codigo: String
    stockDisponibles: int
    precio: int
    tipo: String
    nombre: String
    material: String
    altura: int
    tipoDePersecucion: String
}

entity Boleta {
    Nombre: String
    Precio: int
}

Vendedor -- InstrumentoDeCuerda : Vende >
Vendedor -- InstrumentoDePersecusion : Vende : >
Vendedor -- InstrumentoDeViento : Vende >

InstrumentoDePersecusion -- Boleta : Genera >
InstrumentoDeViento -- Boleta : Genera >
InstrumentoDeCuerda -- Boleta : Genera >

@enduml